<mxfile host="app.diagrams.net" modified="2024-04-24T15:05:55.658Z" agent="Mozilla/5.0 (Windows NT 10.0; Win64; x64) AppleWebKit/537.36 (KHTML, like Gecko) Chrome/124.0.0.0 Safari/537.36" etag="Fqqy8r0SJPNF-uThDlJr" version="24.3.0" type="device">
  <diagram name="Page-1" id="uHp7Q7TdBbeKFT38Imo8">
    <mxGraphModel dx="1430" dy="738" grid="1" gridSize="10" guides="1" tooltips="1" connect="1" arrows="1" fold="1" page="1" pageScale="1" pageWidth="827" pageHeight="1169" math="0" shadow="0">
      <root>
        <mxCell id="0" />
        <mxCell id="1" parent="0" />
        <mxCell id="4tzIYktNFh2-dMJUykki-4" value="Index" style="rounded=1;whiteSpace=wrap;html=1;" vertex="1" parent="1">
          <mxGeometry x="20" y="10" width="120" height="60" as="geometry" />
        </mxCell>
        <mxCell id="4tzIYktNFh2-dMJUykki-5" value="CV" style="rounded=1;whiteSpace=wrap;html=1;" vertex="1" parent="1">
          <mxGeometry x="380" y="10" width="120" height="60" as="geometry" />
        </mxCell>
        <mxCell id="4tzIYktNFh2-dMJUykki-6" value="Showcase" style="rounded=1;whiteSpace=wrap;html=1;" vertex="1" parent="1">
          <mxGeometry x="200" y="10" width="120" height="60" as="geometry" />
        </mxCell>
        <mxCell id="4tzIYktNFh2-dMJUykki-7" value="Contact" style="rounded=1;whiteSpace=wrap;html=1;" vertex="1" parent="1">
          <mxGeometry x="560" y="10" width="120" height="60" as="geometry" />
        </mxCell>
        <mxCell id="4tzIYktNFh2-dMJUykki-10" value="" style="endArrow=none;html=1;rounded=0;" edge="1" parent="1">
          <mxGeometry width="50" height="50" relative="1" as="geometry">
            <mxPoint x="620" y="120" as="sourcePoint" />
            <mxPoint x="619.5" y="70" as="targetPoint" />
          </mxGeometry>
        </mxCell>
        <mxCell id="4tzIYktNFh2-dMJUykki-11" value="" style="endArrow=none;html=1;rounded=0;" edge="1" parent="1">
          <mxGeometry width="50" height="50" relative="1" as="geometry">
            <mxPoint x="440" y="120" as="sourcePoint" />
            <mxPoint x="439.5" y="70" as="targetPoint" />
          </mxGeometry>
        </mxCell>
        <mxCell id="4tzIYktNFh2-dMJUykki-12" value="" style="endArrow=none;html=1;rounded=0;" edge="1" parent="1">
          <mxGeometry width="50" height="50" relative="1" as="geometry">
            <mxPoint x="260" y="120" as="sourcePoint" />
            <mxPoint x="259.5" y="70" as="targetPoint" />
          </mxGeometry>
        </mxCell>
        <mxCell id="4tzIYktNFh2-dMJUykki-15" value="" style="endArrow=none;html=1;rounded=0;exitX=1;exitY=0.5;exitDx=0;exitDy=0;" edge="1" parent="1" source="4tzIYktNFh2-dMJUykki-4">
          <mxGeometry width="50" height="50" relative="1" as="geometry">
            <mxPoint x="160" y="40" as="sourcePoint" />
            <mxPoint x="200" y="40" as="targetPoint" />
          </mxGeometry>
        </mxCell>
        <mxCell id="4tzIYktNFh2-dMJUykki-19" value="" style="endArrow=none;html=1;rounded=0;" edge="1" parent="1">
          <mxGeometry width="50" height="50" relative="1" as="geometry">
            <mxPoint x="80" y="120" as="sourcePoint" />
            <mxPoint x="79.5" y="70" as="targetPoint" />
          </mxGeometry>
        </mxCell>
        <mxCell id="4tzIYktNFh2-dMJUykki-20" value="" style="endArrow=none;html=1;rounded=0;exitX=1;exitY=0.5;exitDx=0;exitDy=0;" edge="1" parent="1">
          <mxGeometry width="50" height="50" relative="1" as="geometry">
            <mxPoint x="320" y="39.5" as="sourcePoint" />
            <mxPoint x="380" y="39.5" as="targetPoint" />
          </mxGeometry>
        </mxCell>
        <mxCell id="4tzIYktNFh2-dMJUykki-21" value="" style="endArrow=none;html=1;rounded=0;exitX=1;exitY=0.5;exitDx=0;exitDy=0;" edge="1" parent="1">
          <mxGeometry width="50" height="50" relative="1" as="geometry">
            <mxPoint x="500" y="39.5" as="sourcePoint" />
            <mxPoint x="560" y="39.5" as="targetPoint" />
          </mxGeometry>
        </mxCell>
        <mxCell id="4tzIYktNFh2-dMJUykki-23" value="About me - journey into tech?" style="rounded=0;whiteSpace=wrap;html=1;" vertex="1" parent="1">
          <mxGeometry x="20" y="120" width="120" height="60" as="geometry" />
        </mxCell>
        <mxCell id="4tzIYktNFh2-dMJUykki-24" value="Pages" style="rounded=1;whiteSpace=wrap;html=1;" vertex="1" parent="1">
          <mxGeometry x="727" y="10" width="90" height="50" as="geometry" />
        </mxCell>
        <mxCell id="4tzIYktNFh2-dMJUykki-27" value="Content" style="rounded=0;whiteSpace=wrap;html=1;" vertex="1" parent="1">
          <mxGeometry x="727" y="80" width="95" height="50" as="geometry" />
        </mxCell>
        <mxCell id="4tzIYktNFh2-dMJUykki-28" value="Filter" style="rounded=0;whiteSpace=wrap;html=1;" vertex="1" parent="1">
          <mxGeometry x="200" y="230" width="120" height="60" as="geometry" />
        </mxCell>
        <mxCell id="4tzIYktNFh2-dMJUykki-29" value="Pinned" style="whiteSpace=wrap;html=1;rounded=0;" vertex="1" parent="1">
          <mxGeometry x="200" y="120" width="120" height="60" as="geometry" />
        </mxCell>
        <mxCell id="4tzIYktNFh2-dMJUykki-31" value="" style="endArrow=none;html=1;rounded=0;" edge="1" parent="1">
          <mxGeometry width="50" height="50" relative="1" as="geometry">
            <mxPoint x="260" y="230" as="sourcePoint" />
            <mxPoint x="259.5" y="180" as="targetPoint" />
          </mxGeometry>
        </mxCell>
        <mxCell id="4tzIYktNFh2-dMJUykki-32" value="Pinned&amp;nbsp;" style="rounded=0;whiteSpace=wrap;html=1;" vertex="1" parent="1">
          <mxGeometry x="20" y="230" width="120" height="60" as="geometry" />
        </mxCell>
        <mxCell id="4tzIYktNFh2-dMJUykki-33" value="" style="endArrow=none;html=1;rounded=0;" edge="1" parent="1">
          <mxGeometry width="50" height="50" relative="1" as="geometry">
            <mxPoint x="80" y="230" as="sourcePoint" />
            <mxPoint x="79.5" y="180" as="targetPoint" />
          </mxGeometry>
        </mxCell>
      </root>
    </mxGraphModel>
  </diagram>
</mxfile>
